HIERARCHY
ROOT root
{
	OFFSET	0	13.1	24.9
	CHANNELS 6  Xposition Yposition Zposition Xrotation Yrotation Zrotation
	JOINT spine_1
	{
		OFFSET	0	9.99999	0
		CHANNELS 3  Xrotation Yrotation Zrotation
		JOINT spine_2
		{
			OFFSET	0	112	-10
			CHANNELS 3  Xrotation Yrotation Zrotation
			JOINT spine_3
			{
				OFFSET	0	206.5	19.3
				CHANNELS 3  Xrotation Yrotation Zrotation
				JOINT spine_4
				{
					OFFSET	0	110.4	14.6
					CHANNELS 3  Xrotation Yrotation Zrotation
					JOINT neck_1
					{
						OFFSET	0	71.8	-50.3
						CHANNELS 3  Xrotation Yrotation Zrotation
						JOINT neck_2
						{
							OFFSET	0	86.2	-25.8
							CHANNELS 3  Xrotation Yrotation Zrotation
							JOINT head_ee
							{
								OFFSET	0	179.8	-8.7
								CHANNELS 3  Xrotation Yrotation Zrotation
								End Site
								{
									OFFSET	1	0	0
								}
							}
						}
					}
					JOINT left_clavicle
					{
						OFFSET	-43.2	22.4	-70.8
						CHANNELS 3  Xrotation Yrotation Zrotation
						JOINT left_shoulder
						{
							OFFSET	-93.9	-5.79999	48.7
							CHANNELS 3  Xrotation Yrotation Zrotation
							JOINT left_elbow
							{
								OFFSET	-291.4	-30.8	15.2
								CHANNELS 3  Xrotation Yrotation Zrotation
								JOINT left_lowarm_twist
								{
									OFFSET	-110.7	-3.89999	13.6
									CHANNELS 3  Xrotation Yrotation Zrotation
									JOINT left_hand
									{
										OFFSET	-110.7	-3.89999	13.6
										CHANNELS 3  Xrotation Yrotation Zrotation
										JOINT left_ee
										{
											OFFSET	-80.8	-5.10001	12.1
											CHANNELS 3  Xrotation Yrotation Zrotation
											End Site
											{
												OFFSET	1	0	0
											}
										}
									}
								}
							}
						}
					}
					JOINT right_clavicle
					{
						OFFSET	43.2	22.4	-70.8
						CHANNELS 3  Xrotation Yrotation Zrotation
						JOINT right_shoulder
						{
							OFFSET	93.9	-5.79999	48.7
							CHANNELS 3  Xrotation Yrotation Zrotation
							JOINT right_elbow
							{
								OFFSET	291.4	-30.8	15.2
								CHANNELS 3  Xrotation Yrotation Zrotation
								JOINT right_lowarm_twist
								{
									OFFSET	110.7	-3.89999	13.6
									CHANNELS 3  Xrotation Yrotation Zrotation
									JOINT right_hand
									{
										OFFSET	110.7	-3.89999	13.6
										CHANNELS 3  Xrotation Yrotation Zrotation
										JOINT right_ee
										{
											OFFSET	80.8	-5.10001	12.1
											CHANNELS 3  Xrotation Yrotation Zrotation
											End Site
											{
												OFFSET	1	0	0
											}
										}
									}
								}
							}
						}
					}
				}
			}
		}
	}
	JOINT left_hip
	{
		OFFSET	-82.8	-127.5	0.300001
		CHANNELS 3  Xrotation Yrotation Zrotation
		JOINT left_knee
		{
			OFFSET	-28.2	-396.7	2.2
			CHANNELS 3  Xrotation Yrotation Zrotation
			JOINT left_ankle
			{
				OFFSET	-11.7	-411.3	35.4
				CHANNELS 3  Xrotation Yrotation Zrotation
				JOINT left_toes
				{
					OFFSET	0	-60	-88.6
					CHANNELS 3  Xrotation Yrotation Zrotation
					JOINT left_foot_ee
					{
						OFFSET	-22.5	-16.5	-42.2
						CHANNELS 3  Xrotation Yrotation Zrotation
						End Site
						{
							OFFSET	1	0	0
						}
					}
				}
			}
		}
	}
	JOINT right_hip
	{
		OFFSET	82.8	-127.5	0.300001
		CHANNELS 3  Xrotation Yrotation Zrotation
		JOINT right_knee
		{
			OFFSET	28.2	-396.7	2.2
			CHANNELS 3  Xrotation Yrotation Zrotation
			JOINT right_ankle
			{
				OFFSET	11.7	-411.3	35.4
				CHANNELS 3  Xrotation Yrotation Zrotation
				JOINT right_toes
				{
					OFFSET	0	-60	-88.6
					CHANNELS 3  Xrotation Yrotation Zrotation
					JOINT right_foot_ee
					{
						OFFSET	22.5	-16.5	-42.2
						CHANNELS 3  Xrotation Yrotation Zrotation
						End Site
						{
							OFFSET	1	0	0
						}
					}
				}
			}
		}
	}
}
MOTION
Frames: 5
Frame Time: 0.02
3503.14925133 739.409 -1565.10477499 6.78335790857 52.3322827843 -5.45293933639 -1.58388 0.944487 4.08106 -1.57488 0.683112 4.13277 -1.51597 -0.311306 4.17718 -1.54014 0.351719 4.17398 -24.1067 14.9327 -5.45991 -26.1444 31.093 2.97047 -0.0 0.0 -0.0 -3.48776 23.5272 -2.05329 -1.81321 -0.955044 66.7587 1.57393 -37.94 0.541056 -69.3253 -6.45995 5.29569 -0.967918 7.71815 -3.06582 -0.0 0.0 -0.0 13.7366 26.069 -27.3788 15.0528 -27.7463 -70.0269 0.533908 14.8147 -0.0694126 68.6343 2.5999 7.844 -2.86999 -28.0975 4.60925 0.0 0.0 0.0 -2.95961 23.4927 -10.4236 4.37678 -0.20482 -0.640128 15.5332 -2.61063 -2.19631 -9.7506 0.0 0.0 -0.0 0.0 -0.0 8.17103 42.8496 -14.5614 -28.4582 -0.100024 -4.32145 39.6026 -10.0157 4.84153 -15.3373 0.0 0.0 0.0 0.0 0.0 
3506.12297423 739.409 -1567.37251638 6.51325243034 50.4830387164 -5.10740626535 -1.58388 0.944487 4.08106 -1.57488 0.683112 4.13277 -1.51597 -0.311306 4.17718 -1.54014 0.351719 4.17398 -24.1067 14.9327 -5.45991 -26.1444 31.093 2.97047 -0.0 0.0 -0.0 -3.48776 23.5272 -2.05329 -1.81321 -0.955044 66.7587 1.57393 -37.94 0.541056 -69.3253 -6.45995 5.29569 -0.967918 7.71815 -3.06582 -0.0 0.0 -0.0 13.7366 26.069 -27.3788 15.0528 -27.7463 -70.0269 0.533908 14.8147 -0.0694126 68.6343 2.5999 7.844 -2.86999 -28.0975 4.60925 0.0 0.0 0.0 -2.95961 23.4927 -10.4236 4.37678 -0.20482 -0.640128 15.5332 -2.61063 -2.19631 -9.7506 0.0 0.0 -0.0 0.0 -0.0 8.17103 42.8496 -14.5614 -28.4582 -0.100024 -4.32145 39.6026 -10.0157 4.84153 -15.3373 0.0 0.0 0.0 0.0 0.0 
3504.11740398 739.409 -1565.85993231 6.69147853592 51.7252738011 -5.33639011162 -1.58388 0.944487 4.08106 -1.57488 0.683112 4.13277 -1.51597 -0.311306 4.17718 -1.54014 0.351719 4.17398 -24.1067 14.9327 -5.45991 -26.1444 31.093 2.97047 -0.0 0.0 -0.0 -3.48776 23.5272 -2.05329 -1.81321 -0.955044 66.7587 1.57393 -37.94 0.541056 -69.3253 -6.45995 5.29569 -0.967918 7.71815 -3.06582 -0.0 0.0 -0.0 13.7366 26.069 -27.3788 15.0528 -27.7463 -70.0269 0.533908 14.8147 -0.0694126 68.6343 2.5999 7.844 -2.86999 -28.0975 4.60925 0.0 0.0 0.0 -2.95961 23.4927 -10.4236 4.37678 -0.20482 -0.640128 15.5332 -2.61063 -2.19631 -9.7506 0.0 0.0 -0.0 0.0 -0.0 8.17103 42.8496 -14.5614 -28.4582 -0.100024 -4.32145 39.6026 -10.0157 4.84153 -15.3373 0.0 0.0 0.0 0.0 0.0 
3501.54095435 739.409 -1563.81290675 6.94531139057 53.3518633082 -5.65614179584 -1.58388 0.944487 4.08106 -1.57488 0.683112 4.13277 -1.51597 -0.311306 4.17718 -1.54014 0.351719 4.17398 -24.1067 14.9327 -5.45991 -26.1444 31.093 2.97047 -0.0 0.0 -0.0 -3.48776 23.5272 -2.05329 -1.81321 -0.955044 66.7587 1.57393 -37.94 0.541056 -69.3253 -6.45995 5.29569 -0.967918 7.71815 -3.06582 -0.0 0.0 -0.0 13.7366 26.069 -27.3788 15.0528 -27.7463 -70.0269 0.533908 14.8147 -0.0694126 68.6343 2.5999 7.844 -2.86999 -28.0975 4.60925 0.0 0.0 0.0 -2.95961 23.4927 -10.4236 4.37678 -0.20482 -0.640128 15.5332 -2.61063 -2.19631 -9.7506 0.0 0.0 -0.0 0.0 -0.0 8.17103 42.8496 -14.5614 -28.4582 -0.100024 -4.32145 39.6026 -10.0157 4.84153 -15.3373 0.0 0.0 0.0 0.0 0.0 
3493.66545049 741.63 -1558.71219926 7.52700211955 59.726625444 -5.65677776728 -1.72221 0.898465 3.87889 -1.71408 0.650016 3.92809 -1.66047 -0.305209 3.96973 -1.68231 0.32506 3.96816 -24.2484 15.6136 -3.11846 -26.4065 31.375 5.57508 -0.0 0.0 -0.0 -3.11159 23.6769 -1.50568 -2.49687 -0.958695 67.0573 1.53441 -37.2359 0.516948 -69.2981 -6.45648 5.29541 -0.955159 8.02332 -2.84835 -0.0 0.0 -0.0 13.7466 26.2484 -27.38 17.8172 -27.9563 -69.2307 0.557715 15.4443 -0.0756264 68.6428 2.60077 7.84466 -3.01204 -27.8532 5.51884 0.0 0.0 0.0 -2.39058 23.0816 -10.5532 4.85527 -0.230169 -0.709136 16.2154 -1.5019 -2.27859 -9.48589 0.0 0.0 -0.0 0.0 -0.0 8.66371 41.8232 -15.7809 -28.0734 -0.113023 -4.26383 41.3413 -10.4037 4.99561 -14.2555 0.0 0.0 0.0 0.0 0.0 
